<?xml version="1.0" encoding="UTF-8" standalone="no"?>
<!DOCTYPE svg PUBLIC "-//W3C//DTD SVG 1.1//EN"
 "http://www.w3.org/Graphics/SVG/1.1/DTD/svg11.dtd">
<!-- Generated by graphviz version 2.43.0 (0)
 -->
<!-- Title: %3 Pages: 1 -->
<svg width="1308pt" height="1307pt"
 viewBox="0.00 0.00 1307.50 1307.00" xmlns="http://www.w3.org/2000/svg" xmlns:xlink="http://www.w3.org/1999/xlink">
<g id="graph0" class="graph" transform="scale(1 1) rotate(0) translate(4 1303)">
<title>%3</title>
<polygon fill="white" stroke="transparent" points="-4,4 -4,-1303 1303.5,-1303 1303.5,4 -4,4"/>
<!-- node0x511000000040 -->
<g id="node1" class="node">
<title>node0x511000000040</title>
<polygon fill="#c0a0c0" stroke="#c0a0c0" points="350,-1206.5 350,-1298.5 665,-1298.5 665,-1206.5 350,-1206.5"/>
<text text-anchor="middle" x="507.5" y="-1283.3" font-family="Helvetica,Arial,sans-serif" font-size="14.00">parent = (nil)</text>
<polyline fill="none" stroke="#c0a0c0" points="350,-1275.5 665,-1275.5 "/>
<text text-anchor="middle" x="507.5" y="-1260.3" font-family="Helvetica,Arial,sans-serif" font-size="14.00">node = 0x511000000040</text>
<polyline fill="none" stroke="#c0a0c0" points="350,-1252.5 665,-1252.5 "/>
<text text-anchor="middle" x="507.5" y="-1237.3" font-family="Helvetica,Arial,sans-serif" font-size="14.00">DOUBLE</text>
<polyline fill="none" stroke="#c0a0c0" points="350,-1229.5 665,-1229.5 "/>
<text text-anchor="middle" x="426" y="-1214.3" font-family="Helvetica,Arial,sans-serif" font-size="14.00">left = 0x511000000f40</text>
<polyline fill="none" stroke="#c0a0c0" points="502,-1206.5 502,-1229.5 "/>
<text text-anchor="middle" x="583.5" y="-1214.3" font-family="Helvetica,Arial,sans-serif" font-size="14.00">right = 0x511000000180</text>
</g>
<!-- node0x511000000f40 -->
<g id="node2" class="node">
<title>node0x511000000f40</title>
<polygon fill="#c0a0c0" stroke="#c0a0c0" points="259,-1005.5 259,-1097.5 496,-1097.5 496,-1005.5 259,-1005.5"/>
<text text-anchor="middle" x="377.5" y="-1082.3" font-family="Helvetica,Arial,sans-serif" font-size="14.00">parent = (nil)</text>
<polyline fill="none" stroke="#c0a0c0" points="259,-1074.5 496,-1074.5 "/>
<text text-anchor="middle" x="377.5" y="-1059.3" font-family="Helvetica,Arial,sans-serif" font-size="14.00">node = 0x511000000f40</text>
<polyline fill="none" stroke="#c0a0c0" points="259,-1051.5 496,-1051.5 "/>
<text text-anchor="middle" x="377.5" y="-1036.3" font-family="Helvetica,Arial,sans-serif" font-size="14.00">DOUBLE</text>
<polyline fill="none" stroke="#c0a0c0" points="259,-1028.5 496,-1028.5 "/>
<text text-anchor="middle" x="296" y="-1013.3" font-family="Helvetica,Arial,sans-serif" font-size="14.00">left = (nil)</text>
<polyline fill="none" stroke="#c0a0c0" points="333,-1005.5 333,-1028.5 "/>
<text text-anchor="middle" x="414.5" y="-1013.3" font-family="Helvetica,Arial,sans-serif" font-size="14.00">right = 0x511000001080</text>
</g>
<!-- node0x511000000040&#45;&gt;node0x511000000f40 -->
<g id="edge1" class="edge">
<title>node0x511000000040:f1&#45;&gt;node0x511000000f40</title>
<path fill="none" stroke="blue" d="M423,-1206.35C423,-1206.35 423,-1107.57 423,-1107.57"/>
<polygon fill="blue" stroke="blue" points="426.5,-1107.57 423,-1097.57 419.5,-1107.57 426.5,-1107.57"/>
</g>
<!-- node0x511000000180 -->
<g id="node9" class="node">
<title>node0x511000000180</title>
<polygon fill="#f0f0f0" stroke="#f0f0f0" points="573.5,-1005.5 573.5,-1097.5 809.5,-1097.5 809.5,-1005.5 573.5,-1005.5"/>
<text text-anchor="middle" x="691.5" y="-1082.3" font-family="Helvetica,Arial,sans-serif" font-size="14.00">parent = (nil)</text>
<polyline fill="none" stroke="#f0f0f0" points="573.5,-1074.5 809.5,-1074.5 "/>
<text text-anchor="middle" x="691.5" y="-1059.3" font-family="Helvetica,Arial,sans-serif" font-size="14.00">node = 0x511000000180</text>
<polyline fill="none" stroke="#f0f0f0" points="573.5,-1051.5 809.5,-1051.5 "/>
<text text-anchor="middle" x="691.5" y="-1036.3" font-family="Helvetica,Arial,sans-serif" font-size="14.00">main</text>
<polyline fill="none" stroke="#f0f0f0" points="573.5,-1028.5 809.5,-1028.5 "/>
<text text-anchor="middle" x="651" y="-1013.3" font-family="Helvetica,Arial,sans-serif" font-size="14.00">left = 0x5110000002c0</text>
<polyline fill="none" stroke="#f0f0f0" points="728.5,-1005.5 728.5,-1028.5 "/>
<text text-anchor="middle" x="769" y="-1013.3" font-family="Helvetica,Arial,sans-serif" font-size="14.00">right = (nil)</text>
</g>
<!-- node0x511000000040&#45;&gt;node0x511000000180 -->
<g id="edge8" class="edge">
<title>node0x511000000040:f2&#45;&gt;node0x511000000180</title>
<path fill="none" stroke="orange" d="M619.25,-1206.35C619.25,-1206.35 619.25,-1107.57 619.25,-1107.57"/>
<polygon fill="orange" stroke="orange" points="622.75,-1107.57 619.25,-1097.57 615.75,-1107.57 622.75,-1107.57"/>
</g>
<!-- node0x511000001080 -->
<g id="node3" class="node">
<title>node0x511000001080</title>
<polygon fill="#80f080" stroke="#80f080" points="137,-804.5 137,-896.5 454,-896.5 454,-804.5 137,-804.5"/>
<text text-anchor="middle" x="295.5" y="-881.3" font-family="Helvetica,Arial,sans-serif" font-size="14.00">parent = (nil)</text>
<polyline fill="none" stroke="#80f080" points="137,-873.5 454,-873.5 "/>
<text text-anchor="middle" x="295.5" y="-858.3" font-family="Helvetica,Arial,sans-serif" font-size="14.00">node = 0x511000001080</text>
<polyline fill="none" stroke="#80f080" points="137,-850.5 454,-850.5 "/>
<text text-anchor="middle" x="295.5" y="-835.3" font-family="Helvetica,Arial,sans-serif" font-size="14.00">кукушка</text>
<polyline fill="none" stroke="#80f080" points="137,-827.5 454,-827.5 "/>
<text text-anchor="middle" x="214.5" y="-812.3" font-family="Helvetica,Arial,sans-serif" font-size="14.00">left = 0x511000001440</text>
<polyline fill="none" stroke="#80f080" points="292,-804.5 292,-827.5 "/>
<text text-anchor="middle" x="373" y="-812.3" font-family="Helvetica,Arial,sans-serif" font-size="14.00">right = 0x5110000011c0</text>
</g>
<!-- node0x511000000f40&#45;&gt;node0x511000001080 -->
<g id="edge2" class="edge">
<title>node0x511000000f40:f2&#45;&gt;node0x511000001080</title>
<path fill="none" stroke="orange" d="M356.5,-1005.35C356.5,-1005.35 356.5,-906.57 356.5,-906.57"/>
<polygon fill="orange" stroke="orange" points="360,-906.57 356.5,-896.57 353,-906.57 360,-906.57"/>
</g>
<!-- node0x511000001440 -->
<g id="node4" class="node">
<title>node0x511000001440</title>
<polygon fill="#d0d0d0" stroke="#d0d0d0" points="0,-603.5 0,-695.5 237,-695.5 237,-603.5 0,-603.5"/>
<text text-anchor="middle" x="118.5" y="-680.3" font-family="Helvetica,Arial,sans-serif" font-size="14.00">parent = (nil)</text>
<polyline fill="none" stroke="#d0d0d0" points="0,-672.5 237,-672.5 "/>
<text text-anchor="middle" x="118.5" y="-657.3" font-family="Helvetica,Arial,sans-serif" font-size="14.00">node = 0x511000001440</text>
<polyline fill="none" stroke="#d0d0d0" points="0,-649.5 237,-649.5 "/>
<text text-anchor="middle" x="118.5" y="-634.3" font-family="Helvetica,Arial,sans-serif" font-size="14.00">;</text>
<polyline fill="none" stroke="#d0d0d0" points="0,-626.5 237,-626.5 "/>
<text text-anchor="middle" x="37" y="-611.3" font-family="Helvetica,Arial,sans-serif" font-size="14.00">left = (nil)</text>
<polyline fill="none" stroke="#d0d0d0" points="74,-603.5 74,-626.5 "/>
<text text-anchor="middle" x="155.5" y="-611.3" font-family="Helvetica,Arial,sans-serif" font-size="14.00">right = 0x511000001580</text>
</g>
<!-- node0x511000001080&#45;&gt;node0x511000001440 -->
<g id="edge3" class="edge">
<title>node0x511000001080:f1&#45;&gt;node0x511000001440</title>
<path fill="none" stroke="blue" d="M187,-804.35C187,-804.35 187,-705.57 187,-705.57"/>
<polygon fill="blue" stroke="blue" points="190.5,-705.57 187,-695.57 183.5,-705.57 190.5,-705.57"/>
</g>
<!-- node0x5110000011c0 -->
<g id="node7" class="node">
<title>node0x5110000011c0</title>
<polygon fill="#c0a0c0" stroke="#c0a0c0" points="255,-603.5 255,-695.5 492,-695.5 492,-603.5 255,-603.5"/>
<text text-anchor="middle" x="373.5" y="-680.3" font-family="Helvetica,Arial,sans-serif" font-size="14.00">parent = (nil)</text>
<polyline fill="none" stroke="#c0a0c0" points="255,-672.5 492,-672.5 "/>
<text text-anchor="middle" x="373.5" y="-657.3" font-family="Helvetica,Arial,sans-serif" font-size="14.00">node = 0x5110000011c0</text>
<polyline fill="none" stroke="#c0a0c0" points="255,-649.5 492,-649.5 "/>
<text text-anchor="middle" x="373.5" y="-634.3" font-family="Helvetica,Arial,sans-serif" font-size="14.00">DOUBLE</text>
<polyline fill="none" stroke="#c0a0c0" points="255,-626.5 492,-626.5 "/>
<text text-anchor="middle" x="292" y="-611.3" font-family="Helvetica,Arial,sans-serif" font-size="14.00">left = (nil)</text>
<polyline fill="none" stroke="#c0a0c0" points="329,-603.5 329,-626.5 "/>
<text text-anchor="middle" x="410.5" y="-611.3" font-family="Helvetica,Arial,sans-serif" font-size="14.00">right = 0x511000001300</text>
</g>
<!-- node0x511000001080&#45;&gt;node0x5110000011c0 -->
<g id="edge6" class="edge">
<title>node0x511000001080:f2&#45;&gt;node0x5110000011c0</title>
<path fill="none" stroke="orange" d="M354.5,-804.35C354.5,-804.35 354.5,-705.57 354.5,-705.57"/>
<polygon fill="orange" stroke="orange" points="358,-705.57 354.5,-695.57 351,-705.57 358,-705.57"/>
</g>
<!-- node0x511000001580 -->
<g id="node5" class="node">
<title>node0x511000001580</title>
<polygon fill="#a0a0f0" stroke="#a0a0f0" points="37.5,-402.5 37.5,-494.5 273.5,-494.5 273.5,-402.5 37.5,-402.5"/>
<text text-anchor="middle" x="155.5" y="-479.3" font-family="Helvetica,Arial,sans-serif" font-size="14.00">parent = (nil)</text>
<polyline fill="none" stroke="#a0a0f0" points="37.5,-471.5 273.5,-471.5 "/>
<text text-anchor="middle" x="155.5" y="-456.3" font-family="Helvetica,Arial,sans-serif" font-size="14.00">node = 0x511000001580</text>
<polyline fill="none" stroke="#a0a0f0" points="37.5,-448.5 273.5,-448.5 "/>
<text text-anchor="middle" x="155.5" y="-433.3" font-family="Helvetica,Arial,sans-serif" font-size="14.00">OUT</text>
<polyline fill="none" stroke="#a0a0f0" points="37.5,-425.5 273.5,-425.5 "/>
<text text-anchor="middle" x="74.5" y="-410.3" font-family="Helvetica,Arial,sans-serif" font-size="14.00">left = (nil)</text>
<polyline fill="none" stroke="#a0a0f0" points="111.5,-402.5 111.5,-425.5 "/>
<text text-anchor="middle" x="192.5" y="-410.3" font-family="Helvetica,Arial,sans-serif" font-size="14.00">right = 0x5110000016c0</text>
</g>
<!-- node0x511000001440&#45;&gt;node0x511000001580 -->
<g id="edge4" class="edge">
<title>node0x511000001440:f2&#45;&gt;node0x511000001580</title>
<path fill="none" stroke="orange" d="M137.25,-603.35C137.25,-603.35 137.25,-504.57 137.25,-504.57"/>
<polygon fill="orange" stroke="orange" points="140.75,-504.57 137.25,-494.57 133.75,-504.57 140.75,-504.57"/>
</g>
<!-- node0x5110000016c0 -->
<g id="node6" class="node">
<title>node0x5110000016c0</title>
<polygon fill="#a0f0a0" stroke="#a0f0a0" points="109.5,-201.5 109.5,-293.5 275.5,-293.5 275.5,-201.5 109.5,-201.5"/>
<text text-anchor="middle" x="192.5" y="-278.3" font-family="Helvetica,Arial,sans-serif" font-size="14.00">parent = (nil)</text>
<polyline fill="none" stroke="#a0f0a0" points="109.5,-270.5 275.5,-270.5 "/>
<text text-anchor="middle" x="192.5" y="-255.3" font-family="Helvetica,Arial,sans-serif" font-size="14.00">node = 0x5110000016c0</text>
<polyline fill="none" stroke="#a0f0a0" points="109.5,-247.5 275.5,-247.5 "/>
<text text-anchor="middle" x="192.5" y="-232.3" font-family="Helvetica,Arial,sans-serif" font-size="14.00">0</text>
<polyline fill="none" stroke="#a0f0a0" points="109.5,-224.5 275.5,-224.5 "/>
<text text-anchor="middle" x="149" y="-209.3" font-family="Helvetica,Arial,sans-serif" font-size="14.00">left = (nil)</text>
<polyline fill="none" stroke="#a0f0a0" points="188.5,-201.5 188.5,-224.5 "/>
<text text-anchor="middle" x="232" y="-209.3" font-family="Helvetica,Arial,sans-serif" font-size="14.00">right = (nil)</text>
</g>
<!-- node0x511000001580&#45;&gt;node0x5110000016c0 -->
<g id="edge5" class="edge">
<title>node0x511000001580:f2&#45;&gt;node0x5110000016c0</title>
<path fill="none" stroke="orange" d="M191.5,-402.35C191.5,-402.35 191.5,-303.57 191.5,-303.57"/>
<polygon fill="orange" stroke="orange" points="195,-303.57 191.5,-293.57 188,-303.57 195,-303.57"/>
</g>
<!-- node0x511000001300 -->
<g id="node8" class="node">
<title>node0x511000001300</title>
<polygon fill="#a0f0a0" stroke="#a0f0a0" points="327,-402.5 327,-494.5 494,-494.5 494,-402.5 327,-402.5"/>
<text text-anchor="middle" x="410.5" y="-479.3" font-family="Helvetica,Arial,sans-serif" font-size="14.00">parent = (nil)</text>
<polyline fill="none" stroke="#a0f0a0" points="327,-471.5 494,-471.5 "/>
<text text-anchor="middle" x="410.5" y="-456.3" font-family="Helvetica,Arial,sans-serif" font-size="14.00">node = 0x511000001300</text>
<polyline fill="none" stroke="#a0f0a0" points="327,-448.5 494,-448.5 "/>
<text text-anchor="middle" x="410.5" y="-433.3" font-family="Helvetica,Arial,sans-serif" font-size="14.00">0</text>
<polyline fill="none" stroke="#a0f0a0" points="327,-425.5 494,-425.5 "/>
<text text-anchor="middle" x="367" y="-410.3" font-family="Helvetica,Arial,sans-serif" font-size="14.00">left = (nil)</text>
<polyline fill="none" stroke="#a0f0a0" points="407,-402.5 407,-425.5 "/>
<text text-anchor="middle" x="450.5" y="-410.3" font-family="Helvetica,Arial,sans-serif" font-size="14.00">right = (nil)</text>
</g>
<!-- node0x5110000011c0&#45;&gt;node0x511000001300 -->
<g id="edge7" class="edge">
<title>node0x5110000011c0:f2&#45;&gt;node0x511000001300</title>
<path fill="none" stroke="orange" d="M409.5,-603.35C409.5,-603.35 409.5,-504.57 409.5,-504.57"/>
<polygon fill="orange" stroke="orange" points="413,-504.57 409.5,-494.57 406,-504.57 413,-504.57"/>
</g>
<!-- node0x5110000002c0 -->
<g id="node10" class="node">
<title>node0x5110000002c0</title>
<polygon fill="#d0d0d0" stroke="#d0d0d0" points="551.5,-804.5 551.5,-896.5 869.5,-896.5 869.5,-804.5 551.5,-804.5"/>
<text text-anchor="middle" x="710.5" y="-881.3" font-family="Helvetica,Arial,sans-serif" font-size="14.00">parent = (nil)</text>
<polyline fill="none" stroke="#d0d0d0" points="551.5,-873.5 869.5,-873.5 "/>
<text text-anchor="middle" x="710.5" y="-858.3" font-family="Helvetica,Arial,sans-serif" font-size="14.00">node = 0x5110000002c0</text>
<polyline fill="none" stroke="#d0d0d0" points="551.5,-850.5 869.5,-850.5 "/>
<text text-anchor="middle" x="710.5" y="-835.3" font-family="Helvetica,Arial,sans-serif" font-size="14.00">;</text>
<polyline fill="none" stroke="#d0d0d0" points="551.5,-827.5 869.5,-827.5 "/>
<text text-anchor="middle" x="629" y="-812.3" font-family="Helvetica,Arial,sans-serif" font-size="14.00">left = 0x511000000b80</text>
<polyline fill="none" stroke="#d0d0d0" points="706.5,-804.5 706.5,-827.5 "/>
<text text-anchor="middle" x="788" y="-812.3" font-family="Helvetica,Arial,sans-serif" font-size="14.00">right = 0x511000000400</text>
</g>
<!-- node0x511000000180&#45;&gt;node0x5110000002c0 -->
<g id="edge9" class="edge">
<title>node0x511000000180:f1&#45;&gt;node0x5110000002c0</title>
<path fill="none" stroke="blue" d="M691.5,-1005.35C691.5,-1005.35 691.5,-906.57 691.5,-906.57"/>
<polygon fill="blue" stroke="blue" points="695,-906.57 691.5,-896.57 688,-906.57 695,-906.57"/>
</g>
<!-- node0x511000000b80 -->
<g id="node11" class="node">
<title>node0x511000000b80</title>
<polygon fill="#d0d0d0" stroke="#d0d0d0" points="510.5,-603.5 510.5,-695.5 746.5,-695.5 746.5,-603.5 510.5,-603.5"/>
<text text-anchor="middle" x="628.5" y="-680.3" font-family="Helvetica,Arial,sans-serif" font-size="14.00">parent = (nil)</text>
<polyline fill="none" stroke="#d0d0d0" points="510.5,-672.5 746.5,-672.5 "/>
<text text-anchor="middle" x="628.5" y="-657.3" font-family="Helvetica,Arial,sans-serif" font-size="14.00">node = 0x511000000b80</text>
<polyline fill="none" stroke="#d0d0d0" points="510.5,-649.5 746.5,-649.5 "/>
<text text-anchor="middle" x="628.5" y="-634.3" font-family="Helvetica,Arial,sans-serif" font-size="14.00">;</text>
<polyline fill="none" stroke="#d0d0d0" points="510.5,-626.5 746.5,-626.5 "/>
<text text-anchor="middle" x="547.5" y="-611.3" font-family="Helvetica,Arial,sans-serif" font-size="14.00">left = (nil)</text>
<polyline fill="none" stroke="#d0d0d0" points="584.5,-603.5 584.5,-626.5 "/>
<text text-anchor="middle" x="665.5" y="-611.3" font-family="Helvetica,Arial,sans-serif" font-size="14.00">right = 0x511000000cc0</text>
</g>
<!-- node0x5110000002c0&#45;&gt;node0x511000000b80 -->
<g id="edge10" class="edge">
<title>node0x5110000002c0:f1&#45;&gt;node0x511000000b80</title>
<path fill="none" stroke="blue" d="M649,-804.35C649,-804.35 649,-705.57 649,-705.57"/>
<polygon fill="blue" stroke="blue" points="652.5,-705.57 649,-695.57 645.5,-705.57 652.5,-705.57"/>
</g>
<!-- node0x511000000400 -->
<g id="node14" class="node">
<title>node0x511000000400</title>
<polygon fill="#c0a0c0" stroke="#c0a0c0" points="779,-603.5 779,-695.5 1016,-695.5 1016,-603.5 779,-603.5"/>
<text text-anchor="middle" x="897.5" y="-680.3" font-family="Helvetica,Arial,sans-serif" font-size="14.00">parent = (nil)</text>
<polyline fill="none" stroke="#c0a0c0" points="779,-672.5 1016,-672.5 "/>
<text text-anchor="middle" x="897.5" y="-657.3" font-family="Helvetica,Arial,sans-serif" font-size="14.00">node = 0x511000000400</text>
<polyline fill="none" stroke="#c0a0c0" points="779,-649.5 1016,-649.5 "/>
<text text-anchor="middle" x="897.5" y="-634.3" font-family="Helvetica,Arial,sans-serif" font-size="14.00">DOUBLE</text>
<polyline fill="none" stroke="#c0a0c0" points="779,-626.5 1016,-626.5 "/>
<text text-anchor="middle" x="816" y="-611.3" font-family="Helvetica,Arial,sans-serif" font-size="14.00">left = (nil)</text>
<polyline fill="none" stroke="#c0a0c0" points="853,-603.5 853,-626.5 "/>
<text text-anchor="middle" x="934.5" y="-611.3" font-family="Helvetica,Arial,sans-serif" font-size="14.00">right = 0x511000000540</text>
</g>
<!-- node0x5110000002c0&#45;&gt;node0x511000000400 -->
<g id="edge13" class="edge">
<title>node0x5110000002c0:f2&#45;&gt;node0x511000000400</title>
<path fill="none" stroke="orange" d="M824.25,-804.35C824.25,-804.35 824.25,-705.57 824.25,-705.57"/>
<polygon fill="orange" stroke="orange" points="827.75,-705.57 824.25,-695.57 820.75,-705.57 827.75,-705.57"/>
</g>
<!-- node0x511000000cc0 -->
<g id="node12" class="node">
<title>node0x511000000cc0</title>
<polygon fill="#80f080" stroke="#80f080" points="529,-402.5 529,-494.5 766,-494.5 766,-402.5 529,-402.5"/>
<text text-anchor="middle" x="647.5" y="-479.3" font-family="Helvetica,Arial,sans-serif" font-size="14.00">parent = (nil)</text>
<polyline fill="none" stroke="#80f080" points="529,-471.5 766,-471.5 "/>
<text text-anchor="middle" x="647.5" y="-456.3" font-family="Helvetica,Arial,sans-serif" font-size="14.00">node = 0x511000000cc0</text>
<polyline fill="none" stroke="#80f080" points="529,-448.5 766,-448.5 "/>
<text text-anchor="middle" x="647.5" y="-433.3" font-family="Helvetica,Arial,sans-serif" font-size="14.00">кукушка</text>
<polyline fill="none" stroke="#80f080" points="529,-425.5 766,-425.5 "/>
<text text-anchor="middle" x="566" y="-410.3" font-family="Helvetica,Arial,sans-serif" font-size="14.00">left = (nil)</text>
<polyline fill="none" stroke="#80f080" points="603,-402.5 603,-425.5 "/>
<text text-anchor="middle" x="684.5" y="-410.3" font-family="Helvetica,Arial,sans-serif" font-size="14.00">right = 0x511000000e00</text>
</g>
<!-- node0x511000000b80&#45;&gt;node0x511000000cc0 -->
<g id="edge11" class="edge">
<title>node0x511000000b80:f2&#45;&gt;node0x511000000cc0</title>
<path fill="none" stroke="orange" d="M637.75,-603.35C637.75,-603.35 637.75,-504.57 637.75,-504.57"/>
<polygon fill="orange" stroke="orange" points="641.25,-504.57 637.75,-494.57 634.25,-504.57 641.25,-504.57"/>
</g>
<!-- node0x511000000e00 -->
<g id="node13" class="node">
<title>node0x511000000e00</title>
<polygon fill="#a0f0a0" stroke="#a0f0a0" points="597,-201.5 597,-293.5 764,-293.5 764,-201.5 597,-201.5"/>
<text text-anchor="middle" x="680.5" y="-278.3" font-family="Helvetica,Arial,sans-serif" font-size="14.00">parent = (nil)</text>
<polyline fill="none" stroke="#a0f0a0" points="597,-270.5 764,-270.5 "/>
<text text-anchor="middle" x="680.5" y="-255.3" font-family="Helvetica,Arial,sans-serif" font-size="14.00">node = 0x511000000e00</text>
<polyline fill="none" stroke="#a0f0a0" points="597,-247.5 764,-247.5 "/>
<text text-anchor="middle" x="680.5" y="-232.3" font-family="Helvetica,Arial,sans-serif" font-size="14.00">0</text>
<polyline fill="none" stroke="#a0f0a0" points="597,-224.5 764,-224.5 "/>
<text text-anchor="middle" x="637" y="-209.3" font-family="Helvetica,Arial,sans-serif" font-size="14.00">left = (nil)</text>
<polyline fill="none" stroke="#a0f0a0" points="677,-201.5 677,-224.5 "/>
<text text-anchor="middle" x="720.5" y="-209.3" font-family="Helvetica,Arial,sans-serif" font-size="14.00">right = (nil)</text>
</g>
<!-- node0x511000000cc0&#45;&gt;node0x511000000e00 -->
<g id="edge12" class="edge">
<title>node0x511000000cc0:f2&#45;&gt;node0x511000000e00</title>
<path fill="none" stroke="orange" d="M680.5,-402.35C680.5,-402.35 680.5,-303.57 680.5,-303.57"/>
<polygon fill="orange" stroke="orange" points="684,-303.57 680.5,-293.57 677,-303.57 684,-303.57"/>
</g>
<!-- node0x511000000540 -->
<g id="node15" class="node">
<title>node0x511000000540</title>
<polygon fill="#d0d0d0" stroke="#d0d0d0" points="788.5,-402.5 788.5,-494.5 1106.5,-494.5 1106.5,-402.5 788.5,-402.5"/>
<text text-anchor="middle" x="947.5" y="-479.3" font-family="Helvetica,Arial,sans-serif" font-size="14.00">parent = (nil)</text>
<polyline fill="none" stroke="#d0d0d0" points="788.5,-471.5 1106.5,-471.5 "/>
<text text-anchor="middle" x="947.5" y="-456.3" font-family="Helvetica,Arial,sans-serif" font-size="14.00">node = 0x511000000540</text>
<polyline fill="none" stroke="#d0d0d0" points="788.5,-448.5 1106.5,-448.5 "/>
<text text-anchor="middle" x="947.5" y="-433.3" font-family="Helvetica,Arial,sans-serif" font-size="14.00">=</text>
<polyline fill="none" stroke="#d0d0d0" points="788.5,-425.5 1106.5,-425.5 "/>
<text text-anchor="middle" x="866" y="-410.3" font-family="Helvetica,Arial,sans-serif" font-size="14.00">left = 0x511000000a40</text>
<polyline fill="none" stroke="#d0d0d0" points="943.5,-402.5 943.5,-425.5 "/>
<text text-anchor="middle" x="1025" y="-410.3" font-family="Helvetica,Arial,sans-serif" font-size="14.00">right = 0x511000000680</text>
</g>
<!-- node0x511000000400&#45;&gt;node0x511000000540 -->
<g id="edge14" class="edge">
<title>node0x511000000400:f2&#45;&gt;node0x511000000540</title>
<path fill="none" stroke="orange" d="M902.25,-603.35C902.25,-603.35 902.25,-504.57 902.25,-504.57"/>
<polygon fill="orange" stroke="orange" points="905.75,-504.57 902.25,-494.57 898.75,-504.57 905.75,-504.57"/>
</g>
<!-- node0x511000000a40 -->
<g id="node16" class="node">
<title>node0x511000000a40</title>
<polygon fill="#a0f0a0" stroke="#a0f0a0" points="782,-201.5 782,-293.5 949,-293.5 949,-201.5 782,-201.5"/>
<text text-anchor="middle" x="865.5" y="-278.3" font-family="Helvetica,Arial,sans-serif" font-size="14.00">parent = (nil)</text>
<polyline fill="none" stroke="#a0f0a0" points="782,-270.5 949,-270.5 "/>
<text text-anchor="middle" x="865.5" y="-255.3" font-family="Helvetica,Arial,sans-serif" font-size="14.00">node = 0x511000000a40</text>
<polyline fill="none" stroke="#a0f0a0" points="782,-247.5 949,-247.5 "/>
<text text-anchor="middle" x="865.5" y="-232.3" font-family="Helvetica,Arial,sans-serif" font-size="14.00">0</text>
<polyline fill="none" stroke="#a0f0a0" points="782,-224.5 949,-224.5 "/>
<text text-anchor="middle" x="822" y="-209.3" font-family="Helvetica,Arial,sans-serif" font-size="14.00">left = (nil)</text>
<polyline fill="none" stroke="#a0f0a0" points="862,-201.5 862,-224.5 "/>
<text text-anchor="middle" x="905.5" y="-209.3" font-family="Helvetica,Arial,sans-serif" font-size="14.00">right = (nil)</text>
</g>
<!-- node0x511000000540&#45;&gt;node0x511000000a40 -->
<g id="edge15" class="edge">
<title>node0x511000000540:f1&#45;&gt;node0x511000000a40</title>
<path fill="none" stroke="blue" d="M868.75,-402.35C868.75,-402.35 868.75,-303.57 868.75,-303.57"/>
<polygon fill="blue" stroke="blue" points="872.25,-303.57 868.75,-293.57 865.25,-303.57 872.25,-303.57"/>
</g>
<!-- node0x511000000680 -->
<g id="node17" class="node">
<title>node0x511000000680</title>
<polygon fill="#a0a0a0" stroke="#a0a0a0" points="967,-201.5 967,-293.5 1284,-293.5 1284,-201.5 967,-201.5"/>
<text text-anchor="middle" x="1125.5" y="-278.3" font-family="Helvetica,Arial,sans-serif" font-size="14.00">parent = (nil)</text>
<polyline fill="none" stroke="#a0a0a0" points="967,-270.5 1284,-270.5 "/>
<text text-anchor="middle" x="1125.5" y="-255.3" font-family="Helvetica,Arial,sans-serif" font-size="14.00">node = 0x511000000680</text>
<polyline fill="none" stroke="#a0a0a0" points="967,-247.5 1284,-247.5 "/>
<text text-anchor="middle" x="1125.5" y="-232.3" font-family="Helvetica,Arial,sans-serif" font-size="14.00">SUB</text>
<polyline fill="none" stroke="#a0a0a0" points="967,-224.5 1284,-224.5 "/>
<text text-anchor="middle" x="1044.5" y="-209.3" font-family="Helvetica,Arial,sans-serif" font-size="14.00">left = 0x511000000900</text>
<polyline fill="none" stroke="#a0a0a0" points="1122,-201.5 1122,-224.5 "/>
<text text-anchor="middle" x="1203" y="-209.3" font-family="Helvetica,Arial,sans-serif" font-size="14.00">right = 0x5110000007c0</text>
</g>
<!-- node0x511000000540&#45;&gt;node0x511000000680 -->
<g id="edge16" class="edge">
<title>node0x511000000540:f2&#45;&gt;node0x511000000680</title>
<path fill="none" stroke="orange" d="M1036.75,-402.35C1036.75,-402.35 1036.75,-303.57 1036.75,-303.57"/>
<polygon fill="orange" stroke="orange" points="1040.25,-303.57 1036.75,-293.57 1033.25,-303.57 1040.25,-303.57"/>
</g>
<!-- node0x511000000900 -->
<g id="node18" class="node">
<title>node0x511000000900</title>
<polygon fill="#f0a0a0" stroke="#f0a0a0" points="948,-0.5 948,-92.5 1115,-92.5 1115,-0.5 948,-0.5"/>
<text text-anchor="middle" x="1031.5" y="-77.3" font-family="Helvetica,Arial,sans-serif" font-size="14.00">parent = (nil)</text>
<polyline fill="none" stroke="#f0a0a0" points="948,-69.5 1115,-69.5 "/>
<text text-anchor="middle" x="1031.5" y="-54.3" font-family="Helvetica,Arial,sans-serif" font-size="14.00">node = 0x511000000900</text>
<polyline fill="none" stroke="#f0a0a0" points="948,-46.5 1115,-46.5 "/>
<text text-anchor="middle" x="1031.5" y="-31.3" font-family="Helvetica,Arial,sans-serif" font-size="14.00">2.000</text>
<polyline fill="none" stroke="#f0a0a0" points="948,-23.5 1115,-23.5 "/>
<text text-anchor="middle" x="988" y="-8.3" font-family="Helvetica,Arial,sans-serif" font-size="14.00">left = (nil)</text>
<polyline fill="none" stroke="#f0a0a0" points="1028,-0.5 1028,-23.5 "/>
<text text-anchor="middle" x="1071.5" y="-8.3" font-family="Helvetica,Arial,sans-serif" font-size="14.00">right = (nil)</text>
</g>
<!-- node0x511000000680&#45;&gt;node0x511000000900 -->
<g id="edge17" class="edge">
<title>node0x511000000680:f1&#45;&gt;node0x511000000900</title>
<path fill="none" stroke="blue" d="M1041,-201.35C1041,-201.35 1041,-102.57 1041,-102.57"/>
<polygon fill="blue" stroke="blue" points="1044.5,-102.57 1041,-92.57 1037.5,-102.57 1044.5,-102.57"/>
</g>
<!-- node0x5110000007c0 -->
<g id="node19" class="node">
<title>node0x5110000007c0</title>
<polygon fill="#f0a0a0" stroke="#f0a0a0" points="1133.5,-0.5 1133.5,-92.5 1299.5,-92.5 1299.5,-0.5 1133.5,-0.5"/>
<text text-anchor="middle" x="1216.5" y="-77.3" font-family="Helvetica,Arial,sans-serif" font-size="14.00">parent = (nil)</text>
<polyline fill="none" stroke="#f0a0a0" points="1133.5,-69.5 1299.5,-69.5 "/>
<text text-anchor="middle" x="1216.5" y="-54.3" font-family="Helvetica,Arial,sans-serif" font-size="14.00">node = 0x5110000007c0</text>
<polyline fill="none" stroke="#f0a0a0" points="1133.5,-46.5 1299.5,-46.5 "/>
<text text-anchor="middle" x="1216.5" y="-31.3" font-family="Helvetica,Arial,sans-serif" font-size="14.00">3.000</text>
<polyline fill="none" stroke="#f0a0a0" points="1133.5,-23.5 1299.5,-23.5 "/>
<text text-anchor="middle" x="1173" y="-8.3" font-family="Helvetica,Arial,sans-serif" font-size="14.00">left = (nil)</text>
<polyline fill="none" stroke="#f0a0a0" points="1212.5,-0.5 1212.5,-23.5 "/>
<text text-anchor="middle" x="1256" y="-8.3" font-family="Helvetica,Arial,sans-serif" font-size="14.00">right = (nil)</text>
</g>
<!-- node0x511000000680&#45;&gt;node0x5110000007c0 -->
<g id="edge18" class="edge">
<title>node0x511000000680:f2&#45;&gt;node0x5110000007c0</title>
<path fill="none" stroke="orange" d="M1208.75,-201.35C1208.75,-201.35 1208.75,-102.57 1208.75,-102.57"/>
<polygon fill="orange" stroke="orange" points="1212.25,-102.57 1208.75,-92.57 1205.25,-102.57 1212.25,-102.57"/>
</g>
</g>
</svg>
